<svg xmlns="http://www.w3.org/2000/svg" xmlns:svg="http://www.w3.org/2000/svg" id="svg2" width="744.094" height="1052.362" version="1.1"><defs id="defs4"><filter id="filter3791"><feGaussianBlur id="feGaussianBlur3793" stdDeviation="2.725"/></filter></defs><metadata id="metadata7"/><g id="layer1"><g id="g3882" opacity=".5"><path id="path3755" fill="#000" fill-opacity="1" fill-rule="nonzero" stroke="none" stroke-width="5" d="m 220.21326,100.79848 a 42.426407,42.426407 0 1 1 -84.85282,0 42.426407,42.426407 0 1 1 84.85282,0 z" color="#000" display="inline" enable-background="accumulate" filter="url(#filter3791)" opacity=".509" overflow="visible" transform="matrix(1.0152631,0,0,1.0152631,-0.71357503,0.46150497)" visibility="visible" style="marker:none"/><path id="path2985" fill="#d4d4d4" fill-opacity="1" fill-rule="nonzero" stroke="#000" stroke-dasharray="none" stroke-dashoffset="0" stroke-linecap="butt" stroke-linejoin="miter" stroke-miterlimit="4" stroke-opacity="1" stroke-width="8" d="m 220.21326,100.79848 a 42.426407,42.426407 0 1 1 -84.85282,0 42.426407,42.426407 0 1 1 84.85282,0 z" color="#000" display="inline" enable-background="accumulate" overflow="visible" transform="translate(-2,-2)" visibility="visible" style="marker:none"/><path id="path3853" fill="#000" fill-opacity="1" stroke="none" stroke-width="1" d="m 175.28125,96.03125 0,8.46875 1,0 0,-8.46875 -1,0 z" baseline-shift="baseline" color="#000" direction="ltr" display="inline" enable-background="accumulate" font-family="Sans" font-size="medium" font-stretch="normal" font-style="normal" font-variant="normal" font-weight="normal" letter-spacing="normal" overflow="visible" text-anchor="start" text-decoration="none" visibility="visible" word-spacing="normal" writing-mode="lr-tb" style="text-indent:0;text-align:start;line-height:normal;text-transform:none;block-progression:tb;marker:none;-inkscape-font-specification:Sans"/><path id="path3859" fill="#000" fill-opacity="1" stroke="none" stroke-width="1" d="m 171.53125,99.75 0,1 8.46875,0 0,-1 -8.46875,0 z" baseline-shift="baseline" color="#000" direction="ltr" display="inline" enable-background="accumulate" font-family="Sans" font-size="medium" font-stretch="normal" font-style="normal" font-variant="normal" font-weight="normal" letter-spacing="normal" overflow="visible" text-anchor="start" text-decoration="none" visibility="visible" word-spacing="normal" writing-mode="lr-tb" style="text-indent:0;text-align:start;line-height:normal;text-transform:none;block-progression:tb;marker:none;-inkscape-font-specification:Sans"/></g><path id="path3867" fill="none" fill-opacity="1" fill-rule="nonzero" stroke="none" stroke-dasharray="none" stroke-dashoffset="0" stroke-linecap="butt" stroke-linejoin="miter" stroke-miterlimit="4" stroke-opacity="1" stroke-width="8" d="m 220.21326,100.79848 a 42.426407,42.426407 0 1 1 -84.85282,0 42.426407,42.426407 0 1 1 84.85282,0 z" color="#000" display="inline" enable-background="accumulate" overflow="visible" transform="matrix(1.2923213,0,0,1.2923213,-53.970887,-31.465544)" visibility="visible" style="marker:none"/></g></svg>